<?xml version="1.0" encoding="UTF-8"?>
<svg version="1.1" xmlns="http://www.w3.org/2000/svg" width="340" height="431">
<path d="M0 0 C1.62669977 0.37911863 3.23835607 0.82504062 4.8359375 1.3125 C6.39199707 1.71662109 6.39199707 1.71662109 7.97949219 2.12890625 C11.06159884 2.94988534 14.12458718 3.8196551 17.18478394 4.71844482 C20.73897789 5.7605116 24.30098802 6.77508798 27.86328125 7.7890625 C28.60427567 8.00019684 29.34527008 8.21133118 30.10871887 8.42886353 C37.96187265 10.65345329 45.86239258 12.68053299 53.7734375 14.6875 C81.89860577 21.83935579 109.91272536 29.40970411 137.8359375 37.3125 C138.1659375 50.5125 138.4959375 63.7125 138.8359375 77.3125 C141.1459375 77.9725 143.4559375 78.6325 145.8359375 79.3125 C145.81067993 78.15633179 145.81067993 78.15633179 145.78491211 76.97680664 C145.73425632 73.44177532 145.75334014 69.91030899 145.7734375 66.375 C145.74572266 65.16263672 145.71800781 63.95027344 145.68945312 62.70117188 C145.79859987 54.64614238 147.30697479 50.39764908 153.02563477 44.68920898 C159.2633965 41.63345897 167.41958284 44.80060183 173.83374023 46.54980469 C174.68396255 46.77600494 175.53418488 47.0022052 176.41017151 47.23526001 C179.19833593 47.97872649 181.98390935 48.73144356 184.76953125 49.484375 C186.73122246 50.00960126 188.69306301 50.53426998 190.65504456 51.05841064 C195.81338018 52.43816476 200.96953656 53.82589926 206.12530518 55.21520996 C210.28928383 56.33590543 214.45471479 57.45114065 218.62025356 58.56602097 C230.69662625 61.79824741 242.77202905 65.03401316 254.8359375 68.3125 C255.68713795 68.54344864 256.53833839 68.77439728 257.41533279 69.01234436 C259.89253235 69.68602329 262.3684588 70.36417949 264.84399414 71.04394531 C265.57942412 71.24373363 266.31485411 71.44352196 267.07256985 71.64936447 C270.76253529 72.6684747 274.31654722 73.80268278 277.8359375 75.3125 C278.09227977 82.94458779 278.28698474 90.57622302 278.40587139 98.2116518 C278.46297633 101.75862838 278.54022347 105.30263409 278.66577148 108.84790039 C279.56635571 134.95416074 279.56635571 134.95416074 274.10505676 141.35539246 C270.92843424 144.33289985 268.44263837 146.24381852 264.02026367 146.43286133 C261.71894112 146.012867 259.90515634 145.39053747 257.8359375 144.3125 C257.92746094 145.19035156 258.01898438 146.06820312 258.11328125 146.97265625 C257.66498237 152.37118507 254.43976081 154.75621214 250.66015625 158.36328125 C247.58581574 160.48512898 246.3583139 160.8724018 242.7109375 160.4375 C240.453125 159.8828125 240.453125 159.8828125 238.8359375 159.3125 C238.6915625 160.281875 238.5471875 161.25125 238.3984375 162.25 C236.76535152 167.89051682 232.57734912 172.04100136 227.8359375 175.3125 C224.10972463 175.93248109 221.21649929 175.00278089 217.8359375 173.3125 C217.93777344 174.17875 218.03960937 175.045 218.14453125 175.9375 C217.74574885 180.29886704 215.87116849 182.34372737 212.8984375 185.3125 C212.44919922 185.82683594 211.99996094 186.34117187 211.53710938 186.87109375 C210.12109375 188.3125 210.12109375 188.3125 206.8359375 190.3125 C203.8659375 189.6525 200.8959375 188.9925 197.8359375 188.3125 C198.1659375 196.5625 198.4959375 204.8125 198.8359375 213.3125 C204.71372252 214.91664105 204.71372252 214.91664105 210.59350586 216.51342773 C211.32190674 216.71395752 212.05030762 216.9144873 212.80078125 217.12109375 C213.549646 217.32532959 214.29851074 217.52956543 215.07006836 217.73999023 C216.8359375 218.3125 216.8359375 218.3125 217.8359375 219.3125 C217.92263182 220.8012186 217.94297244 222.293945 217.93359375 223.78515625 C217.93037109 224.68427734 217.92714844 225.58339844 217.92382812 226.50976562 C217.91544922 227.45529297 217.90707031 228.40082031 217.8984375 229.375 C217.89392578 230.32439453 217.88941406 231.27378906 217.88476562 232.25195312 C217.8729386 234.60553065 217.85645775 236.95898477 217.8359375 239.3125 C218.50141602 239.43536377 219.16689453 239.55822754 219.85253906 239.68481445 C226.00001669 240.83221633 231.87100166 242.43780588 237.8359375 244.3125 C237.8359375 250.9125 237.8359375 257.5125 237.8359375 264.3125 C243.29399498 265.54569398 243.29399498 265.54569398 248.75512695 266.76513672 C249.43792725 266.92256348 250.12072754 267.07999023 250.82421875 267.2421875 C251.52071533 267.39929199 252.21721191 267.55639648 252.93481445 267.71826172 C254.8359375 268.3125 254.8359375 268.3125 257.8359375 270.3125 C258.17651367 272.37548828 258.17651367 272.37548828 258.12890625 274.8828125 C258.11923828 275.77871094 258.10957031 276.67460937 258.09960938 277.59765625 C258.07447266 278.53480469 258.04933594 279.47195313 258.0234375 280.4375 C258.00990234 281.38238281 257.99636719 282.32726562 257.98242188 283.30078125 C257.94700056 285.63858779 257.89761021 287.97526237 257.8359375 290.3125 C259.03347656 290.4465625 260.23101562 290.580625 261.46484375 290.71875 C264.99428011 291.16061023 268.34338191 291.85035257 271.7734375 292.8125 C272.71058594 293.0703125 273.64773438 293.328125 274.61328125 293.59375 C276.8359375 294.3125 276.8359375 294.3125 277.8359375 295.3125 C277.98739162 297.124311 278.06942865 298.94196701 278.12402344 300.75927734 C278.15945251 301.92494232 278.19488159 303.0906073 278.23138428 304.29159546 C278.33899522 308.95871244 278.42790911 313.62582674 278.48800278 318.29378319 C278.53399949 321.83180484 278.6009206 325.36647371 278.72070312 328.90283203 C279.54384493 353.8686563 279.54384493 353.8686563 274.92980957 361.472229 C272.42102153 363.86352372 270.0682781 365.05911831 266.8359375 366.3125 C264.06886908 366.04963532 261.96418071 365.66234663 259.34545898 364.89648438 C258.61557361 364.70388094 257.88568823 364.5112775 257.13368511 364.3128376 C255.53858234 363.88932341 253.9462429 363.45529524 252.3564949 363.01210403 C249.78303703 362.29781699 247.20254873 361.61799424 244.61764526 360.94638062 C238.79314988 359.42842184 232.98049296 357.86775546 227.16796875 356.3046875 C225.03192233 355.73209497 222.89582828 355.15968011 220.75968933 354.58743286 C216.31941266 353.39733139 211.87961717 352.2054568 207.44018555 351.01220703 C201.75747937 349.48488631 196.07371417 347.9615502 190.38960743 346.43945122 C185.99432956 345.26211012 181.59953866 344.08295995 177.20490074 342.90323257 C175.10830602 342.34058444 173.01157808 341.77843244 170.91471291 341.21679306 C167.99319273 340.43392374 165.07231967 339.64868484 162.15161133 338.86279297 C161.29286911 338.6331485 160.43412689 338.40350403 159.54936218 338.16690063 C158.74950897 337.95116394 157.94965576 337.73542725 157.12556458 337.51315308 C156.43786389 337.328459 155.75016321 337.14376492 155.04162312 336.95347404 C152.28236672 336.15163188 149.56188725 335.22114992 146.8359375 334.3125 C146.8359375 320.7825 146.8359375 307.2525 146.8359375 293.3125 C143.8659375 292.9825 140.8959375 292.6525 137.8359375 292.3125 C137.88830566 293.04774902 137.94067383 293.78299805 137.99462891 294.54052734 C139.36978078 316.69962026 139.36978078 316.69962026 135.890625 322.30078125 C133.23122924 325.11063212 131.4389188 326.88552978 127.8359375 328.3125 C120.3864882 327.85827194 113.33803383 325.70484007 106.16796875 323.73828125 C104.83510044 323.37705805 103.50207412 323.01641747 102.16889954 322.65632629 C99.41360354 321.9116468 96.65899286 321.16450689 93.90484619 320.41558838 C87.68374551 318.72615121 81.45274107 317.07389952 75.22265625 315.41796875 C72.79470644 314.77111239 70.36680967 314.12405692 67.93896484 313.47680664 C66.12002716 312.99197311 66.12002716 312.99197311 64.26434326 312.49734497 C56.5034929 310.42826182 48.74301413 308.3577855 40.98266602 306.28681946 C35.03342186 304.69918 29.08408211 303.11190455 23.13427734 301.52636719 C18.21388109 300.21506551 13.2940297 298.9017419 8.37466431 297.58657837 C6.6097101 297.11509487 4.84455521 296.6443619 3.07919312 296.17440796 C0.68246238 295.53624637 -1.71354605 294.89544365 -4.109375 294.25390625 C-4.80529251 294.06927826 -5.50121002 293.88465027 -6.21821594 293.69442749 C-10.93564286 292.42670982 -10.93564286 292.42670982 -13.1640625 291.3125 C-13.3734382 283.38444618 -13.53292147 275.45756391 -13.63037205 267.527421 C-13.6771672 263.84418541 -13.74052787 260.16285305 -13.84301758 256.48071289 C-13.94147334 252.92084793 -13.99475281 249.36280182 -14.01795769 245.80167961 C-14.04246043 243.79552475 -14.11261875 241.79009327 -14.18373108 239.78504944 C-14.18745223 232.99389239 -13.67724255 228.97360676 -8.91772461 223.91772461 C-6.36167621 221.58255628 -4.98939455 220.41257554 -1.53663635 219.99391174 C1.57112174 220.25434734 4.05136606 220.92021428 6.8359375 222.3125 C6.8359375 174.1325 6.8359375 125.9525 6.8359375 76.3125 C3.2059375 75.6525 -0.4240625 74.9925 -4.1640625 74.3125 C-7.20731697 73.35919137 -10.1831951 72.41652496 -13.1640625 71.3125 C-13.3734382 63.38444618 -13.53292147 55.45756391 -13.63037205 47.527421 C-13.6771672 43.84418541 -13.74052787 40.16285305 -13.84301758 36.48071289 C-13.94147334 32.92084793 -13.99475281 29.36280182 -14.01795769 25.80167961 C-14.04246043 23.79552475 -14.11261875 21.79009327 -14.18373108 19.78504944 C-14.18746828 12.9645999 -13.67772044 8.98138047 -8.86938477 3.92944336 C-5.91911308 1.27339987 -4.03702858 -0.21503276 0 0 Z " fill="#010101" transform="translate(33.1640625,34.6875)"/>
<path d="M0 0 C7.18691251 1.36986982 14.23544758 3.0264623 21.3046875 4.90625 C22.37085297 5.18741165 23.43701843 5.4685733 24.53549194 5.758255 C27.98291656 6.6687266 31.42904047 7.58400019 34.875 8.5 C36.04720093 8.81069427 37.21940186 9.12138855 38.42712402 9.4414978 C53.72046654 13.49559359 69.00099298 17.59451081 84.25 21.8125 C85.39562408 22.12791748 85.39562408 22.12791748 86.56439209 22.44970703 C88.67422936 23.03163578 90.78267593 23.61830472 92.890625 24.20703125 C94.05625977 24.5316333 95.22189453 24.85623535 96.42285156 25.19067383 C99 26 99 26 100 27 C100.08651611 28.41570123 100.10704904 29.835595 100.09765625 31.25390625 C100.09282227 32.53491211 100.09282227 32.53491211 100.08789062 33.84179688 C100.07532227 35.18854492 100.07532227 35.18854492 100.0625 36.5625 C100.05798828 37.46419922 100.05347656 38.36589844 100.04882812 39.29492188 C100.03700225 41.53001314 100.0205222 43.76497437 100 46 C92.5161046 45.42431574 87.59008786 43.53002929 80 41 C80 67.4 80 93.8 80 121 C85.28 122.32 90.56 123.64 96 125 C97.98 125.495 97.98 125.495 100 126 C100 119.73 100 113.46 100 107 C106.81627042 107.8520338 112.47180279 109.1231433 119 111 C119.33 104.73 119.66 98.46 120 92 C122.743125 92.639375 125.48625 93.27875 128.3125 93.9375 C129.17270752 94.13722412 130.03291504 94.33694824 130.91918945 94.54272461 C131.60198975 94.70264893 132.28479004 94.86257324 132.98828125 95.02734375 C134.03302612 95.27085571 134.03302612 95.27085571 135.09887695 95.51928711 C136.7534406 95.93765565 138.38094108 96.46031369 140 97 C140 90.4 140 83.8 140 77 C146.27 78.65 152.54 80.3 159 82 C159.33 69.13 159.66 56.26 160 43 C165.00695414 43.71527916 169.44334825 44.54524696 174.28051758 45.84179688 C174.97083069 46.02565445 175.6611438 46.20951202 176.37237549 46.39894104 C178.63084443 47.00157317 180.88769912 47.61001941 183.14453125 48.21875 C184.72149421 48.6412036 186.29853713 49.06335881 187.87565613 49.48522949 C191.16868468 50.36701643 194.46096223 51.25153688 197.75268555 52.13818359 C201.97619794 53.27570728 206.20117266 54.40768229 210.42667103 55.53780365 C213.67754597 56.40766376 216.92781856 57.27975612 220.17789268 58.15260315 C221.73631135 58.57098325 223.29487555 58.98882168 224.8535862 59.40611267 C227.02513369 59.98797136 229.19589693 60.57266623 231.36645508 61.15820312 C232.60220779 61.49049927 233.83796051 61.82279541 235.11116028 62.16516113 C238 63 238 63 240 64 C240 70.6 240 77.2 240 84 C237.256875 83.360625 234.51375 82.72125 231.6875 82.0625 C230.82729248 81.86277588 229.96708496 81.66305176 229.08081055 81.45727539 C228.39801025 81.29735107 227.71520996 81.13742676 227.01171875 80.97265625 C225.96697388 80.72914429 225.96697388 80.72914429 224.90112305 80.48071289 C223.2465594 80.06234435 221.61905892 79.53968631 220 79 C220 85.6 220 92.2 220 99 C213.4 97.35 206.8 95.7 200 94 C200 100.27 200 106.54 200 113 C192.84193461 111.82209051 187.01818667 110.33939556 180 108 C180 114.6 180 121.2 180 128 C177.256875 127.360625 174.51375 126.72125 171.6875 126.0625 C170.82729248 125.86277588 169.96708496 125.66305176 169.08081055 125.45727539 C168.39801025 125.29735107 167.71520996 125.13742676 167.01171875 124.97265625 C165.96697388 124.72914429 165.96697388 124.72914429 164.90112305 124.48071289 C163.2465594 124.06234435 161.61905892 123.53968631 160 123 C160 129.6 160 136.2 160 143 C150.1 140.525 150.1 140.525 140 138 C140.33 150.87 140.66 163.74 141 177 C149.91 179.475 149.91 179.475 159 182 C160 183 160 183 160.11352539 184.94946289 C160.10828857 185.7821167 160.10305176 186.61477051 160.09765625 187.47265625 C160.09443359 188.37177734 160.09121094 189.27089844 160.08789062 190.19726562 C160.07951172 191.14279297 160.07113281 192.08832031 160.0625 193.0625 C160.05798828 194.01189453 160.05347656 194.96128906 160.04882812 195.93945312 C160.0370011 198.29303065 160.02052025 200.64648477 160 203 C161.02351562 203.1340625 162.04703125 203.268125 163.1015625 203.40625 C166.59822064 203.93880715 169.9477435 204.63671121 173.375 205.5 C174.41398438 205.7578125 175.45296875 206.015625 176.5234375 206.28125 C179 207 179 207 180 208 C180.08669432 209.4887186 180.10703494 210.981445 180.09765625 212.47265625 C180.09443359 213.37177734 180.09121094 214.27089844 180.08789062 215.19726562 C180.07951172 216.14279297 180.07113281 217.08832031 180.0625 218.0625 C180.05798828 219.01189453 180.05347656 219.96128906 180.04882812 220.93945312 C180.0370011 223.29303065 180.02052025 225.64648477 180 228 C181.19238281 228.27714844 182.38476562 228.55429687 183.61328125 228.83984375 C185.17970477 229.20565523 186.74611007 229.57154471 188.3125 229.9375 C189.09818359 230.11990234 189.88386719 230.30230469 190.69335938 230.49023438 C191.8293457 230.75610352 191.8293457 230.75610352 192.98828125 231.02734375 C193.68477783 231.18968506 194.38127441 231.35202637 195.09887695 231.51928711 C196.7534406 231.93765565 198.38094108 232.46031369 200 233 C200.33 239.6 200.66 246.2 201 253 C206.87778502 254.60414105 206.87778502 254.60414105 212.75756836 256.20092773 C213.48596924 256.40145752 214.21437012 256.6019873 214.96484375 256.80859375 C216.08814087 257.11494751 216.08814087 257.11494751 217.23413086 257.42749023 C219 258 219 258 220 259 C220.08669432 260.4887186 220.10703494 261.981445 220.09765625 263.47265625 C220.09443359 264.37177734 220.09121094 265.27089844 220.08789062 266.19726562 C220.07951172 267.14279297 220.07113281 268.08832031 220.0625 269.0625 C220.05798828 270.01189453 220.05347656 270.96128906 220.04882812 271.93945312 C220.0370011 274.29303065 220.02052025 276.64648477 220 279 C220.66547852 279.12286377 221.33095703 279.24572754 222.01660156 279.37231445 C228.16407919 280.51971633 234.03506416 282.12530588 240 284 C240 290.6 240 297.2 240 304 C224.08314272 300.42231365 208.36796674 296.12082436 192.6282959 291.8447876 C188.28841312 290.66653614 183.94737787 289.49253821 179.60654449 288.3177948 C173.07016008 286.54838401 166.53522622 284.77370881 160 283 C159.67 269.8 159.34 256.6 159 243 C150.585 240.525 150.585 240.525 142 238 C141.34 237.67 140.68 237.34 140 237 C140 230.4 140 223.8 140 217 C138.55625 216.731875 137.1125 216.46375 135.625 216.1875 C130.29162029 215.12844317 125.1855073 213.62973087 120 212 C120 205.4 120 198.8 120 192 C117.4425 191.360625 114.885 190.72125 112.25 190.0625 C108.16666667 189.04166667 104.08333333 188.02083333 100 187 C100 180.07 100 173.14 100 166 C97.36 165.67 94.72 165.34 92 165 C86.06 163.02 86.06 163.02 80 161 C80 187.4 80 213.8 80 241 C85.28 242.32 90.56 243.64 96 245 C97.98 245.99 97.98 245.99 100 247 C100 253.27 100 259.54 100 266 C91.00051353 264.87506419 91.00051353 264.87506419 87.33618164 263.86767578 C86.50670013 263.64260345 85.67721863 263.41753113 84.82260132 263.18563843 C83.94399445 262.94133087 83.06538757 262.69702332 82.16015625 262.4453125 C80.74411606 262.05891098 80.74411606 262.05891098 79.29946899 261.66470337 C76.21909729 260.82309492 73.14083214 259.97403495 70.0625 259.125 C67.92635684 258.5400737 65.79004292 257.95577068 63.65356445 257.37207031 C60.37292276 256.47576902 57.09237608 255.57914012 53.81236267 254.68054199 C41.89157449 251.41594015 29.95168698 248.22342081 18.01028442 245.03521729 C15.53139924 244.37316941 13.05279507 243.71007807 10.57421875 243.046875 C9.84522369 242.85267975 9.11622864 242.6584845 8.36514282 242.45840454 C5.54793485 241.70429547 2.76762724 240.92254241 0 240 C0 233.4 0 226.8 0 220 C6.94426996 221.28965014 13.13380305 222.94014092 20 225 C20 159 20 93 20 25 C11.585 23.02 11.585 23.02 3 21 C2.01 20.67 1.02 20.34 0 20 C0 13.4 0 6.8 0 0 Z " fill="#FDA502" transform="translate(40,71)"/>
<path d="M0 0 C7.01987526 0.87748441 13.19772129 2.2221317 20 4 C20 10.6 20 17.2 20 24 C21.44375 24.268125 22.8875 24.53625 24.375 24.8125 C29.78312076 25.81686528 34.62321531 27.38696459 40 29 C40 95 40 161 40 229 C23 225 23 225 20 224 C20 230.6 20 237.2 20 244 C21.34425049 244.24911133 22.68850098 244.49822266 24.07348633 244.75488281 C31.07402023 246.15791962 37.937469 248.05044161 44.82421875 249.921875 C46.25689978 250.30851733 47.68966637 250.69484273 49.12251282 251.08087158 C52.88398714 252.09503121 56.64445342 253.11287658 60.40466309 254.13171387 C66.3587629 255.744329 72.31433902 257.35149016 78.26990128 258.95869446 C79.71879883 259.34974044 81.16765922 259.74092417 82.61648178 260.13224792 C95.0593645 263.49241431 107.52036796 266.77873033 120 270 C119.67 263.73 119.34 257.46 119 251 C112.73 249.02 106.46 247.04 100 245 C100 218.6 100 192.2 100 165 C106.66666667 166.66666667 113.33333333 168.33333333 120 170 C120 176.93 120 183.86 120 191 C122.31 191.33 124.62 191.66 127 192 C131.37878254 193.20743837 135.67160003 194.61669692 140 196 C140 202.6 140 209.2 140 216 C145.45923269 217.27291856 145.45923269 217.27291856 150.91918945 218.54272461 C151.60198975 218.70264893 152.28479004 218.86257324 152.98828125 219.02734375 C153.68477783 219.18968506 154.38127441 219.35202637 155.09887695 219.51928711 C156.7534406 219.93765565 158.38094108 220.46031369 160 221 C160 227.6 160 234.2 160 241 C165.08416624 242.23165811 165.08416624 242.23165811 170.17089844 243.45263672 C170.8105957 243.61006348 171.45029297 243.76749023 172.109375 243.9296875 C172.75874023 244.08679199 173.40810547 244.24389648 174.07714844 244.40576172 C176 245 176 245 180 247 C180 260.2 180 273.4 180 287 C183.63 287.66 187.26 288.32 191 289 C193.46430046 289.58658949 195.9214109 290.20485513 198.36743164 290.86352539 C199.01931458 291.03777542 199.67119751 291.21202545 200.34283447 291.39155579 C202.44979547 291.95594172 204.5549895 292.52661781 206.66015625 293.09765625 C208.14171167 293.49629473 209.62335704 293.89459909 211.10508728 294.29258728 C214.18596242 295.1210934 217.26602027 295.95254803 220.34545898 296.78637695 C224.29525139 297.85577499 228.24660803 298.91925227 232.19852543 299.98076725 C235.24695172 300.79998872 238.2947661 301.6214664 241.3423748 302.44372368 C242.8003207 302.83695789 244.25840552 303.22967745 245.71663094 303.62187386 C247.74405648 304.16769545 249.77069238 304.71635279 251.79711914 305.26586914 C252.94974747 305.57738419 254.10237579 305.88889923 255.28993225 306.20985413 C258 307 258 307 260 308 C260 301.4 260 294.8 260 288 C254.54076731 286.72708144 254.54076731 286.72708144 249.08081055 285.45727539 C248.05661011 285.21738892 248.05661011 285.21738892 247.01171875 284.97265625 C246.31522217 284.81031494 245.61872559 284.64797363 244.90112305 284.48071289 C243.2465594 284.06234435 241.61905892 283.53968631 240 283 C239.67 276.4 239.34 269.8 239 263 C233.12221498 261.39585895 233.12221498 261.39585895 227.24243164 259.79907227 C226.51403076 259.59854248 225.78562988 259.3980127 225.03515625 259.19140625 C223.91185913 258.88505249 223.91185913 258.88505249 222.76586914 258.57250977 C221 258 221 258 220 257 C219.91368126 255.65732587 219.89293527 254.31025678 219.90234375 252.96484375 C219.90556641 252.15595703 219.90878906 251.34707031 219.91210938 250.51367188 C219.92048828 249.66353516 219.92886719 248.81339844 219.9375 247.9375 C219.94201172 247.08349609 219.94652344 246.22949219 219.95117188 245.34960938 C219.96299627 243.23304337 219.98093231 241.11651315 220 239 C225.3179337 239.35137554 229.89731841 240.5421814 234.95703125 242.234375 C247.56339038 247.10872543 247.56339038 247.10872543 260.46533203 247.29492188 C264.54397354 244.7430829 266.86852521 241.23830826 269 237 C269.66 237.33 270.32 237.66 271 238 C271 244.6 271 251.2 271 258 C273.64 258.33 276.28 258.66 279 259 C280.99026985 259.45379139 282.97201344 259.94867137 284.9375 260.5 C285.87464844 260.7578125 286.81179688 261.015625 287.77734375 261.28125 C290 262 290 262 291 263 C291.15145412 264.811811 291.23349115 266.62946701 291.28808594 268.44677734 C291.32351501 269.61244232 291.35894409 270.7781073 291.39544678 271.97909546 C291.50305772 276.64621244 291.59197161 281.31332674 291.65206528 285.98128319 C291.69806199 289.51930484 291.7649831 293.05397371 291.88476562 296.59033203 C292.70790743 321.5561563 292.70790743 321.5561563 288.09387207 329.159729 C285.58508403 331.55102372 283.2323406 332.74661831 280 334 C277.23293158 333.73713532 275.12824321 333.34984663 272.50952148 332.58398438 C271.77963611 332.39138094 271.04975073 332.1987775 270.29774761 332.0003376 C268.70264484 331.57682341 267.1103054 331.14279524 265.5205574 330.69960403 C262.94709953 329.98531699 260.36661123 329.30549424 257.78170776 328.63388062 C251.95721238 327.11592184 246.14455546 325.55525546 240.33203125 323.9921875 C238.19598483 323.41959497 236.05989078 322.84718011 233.92375183 322.27493286 C229.48347516 321.08483139 225.04367967 319.8929568 220.60424805 318.69970703 C214.92154187 317.17238631 209.23777667 315.6490502 203.55366993 314.12695122 C199.15839206 312.94961012 194.76360116 311.77045995 190.36896324 310.59073257 C188.27236852 310.02808444 186.17564058 309.46593244 184.07877541 308.90429306 C181.15725523 308.12142374 178.23638217 307.33618484 175.31567383 306.55029297 C174.45693161 306.3206485 173.59818939 306.09100403 172.71342468 305.85440063 C171.91357147 305.63866394 171.11371826 305.42292725 170.28962708 305.20065308 C169.60192639 305.015959 168.91422571 304.83126492 168.20568562 304.64097404 C165.44642922 303.83913188 162.72594975 302.90864992 160 302 C160 288.47 160 274.94 160 261 C157.03 260.67 154.06 260.34 151 260 C151.05236816 260.73524902 151.10473633 261.47049805 151.15869141 262.22802734 C152.53384328 284.38712026 152.53384328 284.38712026 149.0546875 289.98828125 C146.39529174 292.79813212 144.6029813 294.57302978 141 296 C133.5505507 295.54577194 126.50209633 293.39234007 119.33203125 291.42578125 C117.99916294 291.06455805 116.66613662 290.70391747 115.33296204 290.34382629 C112.57766604 289.5991468 109.82305536 288.85200689 107.06890869 288.10308838 C100.84780801 286.41365121 94.61680357 284.76139952 88.38671875 283.10546875 C85.95876894 282.45861239 83.53087217 281.81155692 81.10302734 281.16430664 C79.28408966 280.67947311 79.28408966 280.67947311 77.42840576 280.18484497 C69.6675554 278.11576182 61.90707663 276.0452855 54.14672852 273.97431946 C48.19748436 272.38668 42.24814461 270.79940455 36.29833984 269.21386719 C31.37794359 267.90256551 26.4580922 266.5892419 21.53872681 265.27407837 C19.7737726 264.80259487 18.00861771 264.3318619 16.24325562 263.86190796 C13.84652488 263.22374637 11.45051645 262.58294365 9.0546875 261.94140625 C8.35876999 261.75677826 7.66285248 261.57215027 6.94584656 261.38192749 C2.22841964 260.11420982 2.22841964 260.11420982 0 259 C-0.2093757 251.07194618 -0.36885897 243.14506391 -0.46630955 235.214921 C-0.5131047 231.53168541 -0.57646537 227.85035305 -0.67895508 224.16821289 C-0.77741084 220.60834793 -0.83069031 217.05030182 -0.85389519 213.48917961 C-0.87839793 211.48302475 -0.94855625 209.47759327 -1.01966858 207.47254944 C-1.02338973 200.68139239 -0.51318005 196.66110676 4.24633789 191.60522461 C6.80238629 189.27005628 8.17466795 188.10007554 11.62742615 187.68141174 C14.73518424 187.94184734 17.21542856 188.60771428 20 190 C20 141.82 20 93.64 20 44 C16.37 43.34 12.74 42.68 9 42 C6.03 41.01 3.06 40.02 0 39 C0 26.13 0 13.26 0 0 Z " fill="#010101" transform="translate(20,67)"/>
<path d="M0 0 C3.55419396 1.04206678 7.11620408 2.05664315 10.67849731 3.07061768 C11.41949173 3.28175201 12.16048615 3.49288635 12.92393494 3.7104187 C20.77708872 5.93500846 28.67760864 7.96208817 36.58865356 9.96905518 C64.71382184 17.12091096 92.72794143 24.69125929 120.65115356 32.59405518 C120.98115356 45.79405518 121.31115356 58.99405518 121.65115356 72.59405518 C124.29115356 73.58405518 126.93115356 74.57405518 129.65115356 75.59405518 C129.65115356 79.88405518 129.65115356 84.17405518 129.65115356 88.59405518 C126.40987106 89.67448268 125.69877517 89.54999929 122.56130981 88.63311768 C121.77691528 88.4088208 120.99252075 88.18452393 120.18435669 87.95343018 C118.96135864 87.58991455 118.96135864 87.58991455 117.71365356 87.21905518 C116.1004479 86.75264782 114.4871691 86.28649337 112.87380981 85.82061768 C112.15974976 85.61001709 111.4456897 85.3994165 110.70999146 85.18243408 C108.69972797 84.60793687 106.68223525 84.08932949 104.65115356 83.59405518 C104.65115356 82.93405518 104.65115356 82.27405518 104.65115356 81.59405518 C98.33142433 80.39748879 92.04321213 79.31768445 85.65115356 78.59405518 C86.97115356 78.26405518 88.29115356 77.93405518 89.65115356 77.59405518 C89.32115356 71.32405518 88.99115356 65.05405518 88.65115356 58.59405518 C66.83253877 52.49653158 44.9513567 46.63686822 23.06521606 40.78717041 C21.8697818 40.4676239 20.67434753 40.14807739 19.44268799 39.81884766 C17.19332533 39.21772878 14.94388068 38.61691659 12.69433594 38.01647949 C6.7719146 36.43440439 0.85583662 34.83245734 -5.05169678 33.1955719 C-7.79955555 32.47603541 -10.53645821 31.98648144 -13.34884644 31.59405518 C-19.16017515 30.7831721 -24.71321293 29.18847818 -30.34884644 27.59405518 C-31.79572111 7.65191762 -31.79572111 7.65191762 -28.66134644 1.02764893 C-20.39745876 -7.91054902 -10.32921577 -3.03372423 0 0 Z " fill="#010101" transform="translate(50.348846435546875,39.40594482421875)"/>
<path d="M0 0 C2.75153071 0.61879402 5.50108898 1.24476186 8.25 1.875 C9.02730469 2.04902344 9.80460937 2.22304687 10.60546875 2.40234375 C11.35957031 2.57636719 12.11367187 2.75039062 12.890625 2.9296875 C13.92751465 3.16534424 13.92751465 3.16534424 14.98535156 3.40576172 C17 4 17 4 21 6 C21 12.6 21 19.2 21 26 C22.44375 26.268125 23.8875 26.53625 25.375 26.8125 C30.70837971 27.87155683 35.8144927 29.37026913 41 31 C41 37.6 41 44.2 41 51 C49.415 52.98 49.415 52.98 58 55 C58 58 58 58 56.3203125 59.97265625 C55.23363281 61.00712891 55.23363281 61.00712891 54.125 62.0625 C53.40570313 62.75472656 52.68640625 63.44695312 51.9453125 64.16015625 C51.30335938 64.76730469 50.66140625 65.37445313 50 66 C49.34 66.66 48.68 67.32 48 68 C45.08363501 67.45766113 42.34140554 66.80286426 39.4921875 66.0078125 C38.65156769 65.78302216 37.81094788 65.55823181 36.94485474 65.32662964 C34.25179612 64.60375091 31.56351134 63.86459226 28.875 63.125 C27.05367569 62.63303867 25.23206421 62.14213918 23.41015625 61.65234375 C18.93667471 60.44720717 14.46740858 59.22744875 10 58 C10 57.34 10 56.68 10 56 C9.31035156 55.89042969 8.62070313 55.78085937 7.91015625 55.66796875 C6.97042969 55.50941406 6.03070313 55.35085938 5.0625 55.1875 C4.14597656 55.03667969 3.22945312 54.88585937 2.28515625 54.73046875 C-1.89250157 53.8015484 -5.93993274 52.35335575 -10 51 C-10.495 41.1 -10.495 41.1 -11 31 C-17.27 29.35 -23.54 27.7 -30 26 C-30 19.73 -30 13.46 -30 7 C-28.35 7.28875 -26.7 7.5775 -25 7.875 C-23.99324219 8.04644531 -22.98648438 8.21789062 -21.94921875 8.39453125 C-19.40668327 8.91650873 -17.22750339 9.65145082 -14.8125 10.5625 C-11.13164169 11.37594344 -11.13164169 11.37594344 -8.8359375 9.70703125 C-5.41062556 6.78617434 -2.63330816 3.646119 0 0 Z " fill="#010100" transform="translate(230,248)"/>
<path d="M0 0 C0.66 0.33 1.32 0.66 2 1 C1.67 73.93 1.34 146.86 1 222 C3.31 222.33 5.62 222.66 8 223 C11.96 223.99 15.92 224.98 20 226 C19.67 153.07 19.34 80.14 19 5 C19.66 5.33 20.32 5.66 21 6 C21 85.2 21 164.4 21 246 C-19.625 235.55357143 -19.625 235.55357143 -39 230 C-39 223.4 -39 216.8 -39 210 C-30.58926436 211.56199376 -22.60260516 213.78014484 -14.5 216.5 C-9.69895845 218.10034718 -4.84731185 219.54580644 0 221 C0 148.07 0 75.14 0 0 Z " fill="#ED9400" transform="translate(79,81)"/>
<path d="M0 0 C0.66 0.33 1.32 0.66 2 1 C2 5.62 2 10.24 2 15 C3.53720703 15.29003906 3.53720703 15.29003906 5.10546875 15.5859375 C6.46619601 15.84869863 7.82687033 16.11173398 9.1875 16.375 C10.19780273 16.56449219 10.19780273 16.56449219 11.22851562 16.7578125 C15.1057486 17.51434576 18.28773413 18.51509365 22 20 C22 26.6 22 33.2 22 40 C19.4425 39.38125 16.885 38.7625 14.25 38.125 C8.22778889 36.68645654 2.24072385 35.43564152 -3.8984375 34.58984375 C-8.67408872 33.68162796 -13.32381434 32.3197327 -18 31 C-19.44687467 11.05786244 -19.44687467 11.05786244 -16.3125 4.43359375 C-11.39435096 -0.88586259 -6.88306566 -2.35741361 0 0 Z " fill="#020201" transform="translate(38,256)"/>
<path d="M0 0 C12.94110873 2.94101556 25.75417316 6.27996995 38.5625 9.75 C40.46021948 10.26196709 42.35800561 10.77368719 44.25585938 11.28515625 C48.83800986 12.52060293 53.41925614 13.75934853 58 15 C58 18 58 18 56.3203125 19.97265625 C55.59585938 20.66230469 54.87140625 21.35195312 54.125 22.0625 C53.40570313 22.75472656 52.68640625 23.44695312 51.9453125 24.16015625 C51.30335938 24.76730469 50.66140625 25.37445313 50 26 C49.34 26.66 48.68 27.32 48 28 C46.13794922 27.47599609 46.13794922 27.47599609 44.23828125 26.94140625 C42.59638121 26.48167424 40.95445262 26.02204418 39.3125 25.5625 C38.49587891 25.33240234 37.67925781 25.10230469 36.83789062 24.86523438 C32.90447162 23.76642502 29.00790173 22.78963627 25 22 C22.64078661 21.351419 20.28684991 20.68344725 17.9375 20 C13.51042986 18.70012871 13.51042986 18.70012871 9.05200195 17.51586914 C6.98113956 16.99525852 4.93833486 16.41359893 2.890625 15.80859375 C2.13652344 15.58623047 1.38242188 15.36386719 0.60546875 15.13476562 C-0.17183594 14.90466797 -0.94914063 14.67457031 -1.75 14.4375 C-2.54277344 14.20353516 -3.33554688 13.96957031 -4.15234375 13.72851562 C-6.10177988 13.15307966 -8.05091925 12.57663852 -10 12 C-8.56770833 10.33984375 -7.13541667 8.6796875 -5.703125 7.01953125 C-3.75840499 4.71352151 -1.88104656 2.35809899 0 0 Z " fill="#262626" transform="translate(230,88)"/>
<path d="M0 0 C2.04335961 0.55661182 4.08518855 1.11860841 6.12696838 1.6809845 C7.53109925 2.06245545 8.93539508 2.44331974 10.33985901 2.82356262 C13.74999213 3.74821777 17.15782058 4.68105911 20.56446838 5.6184845 C20.56446838 8.6184845 20.56446838 8.6184845 18.88478088 10.59114075 C18.16032776 11.28078918 17.43587463 11.97043762 16.68946838 12.6809845 C15.97017151 13.37321106 15.25087463 14.06543762 14.50978088 14.77864075 C13.86782776 15.38578918 13.22587463 15.99293762 12.56446838 16.6184845 C11.90446838 17.2784845 11.24446838 17.9384845 10.56446838 18.6184845 C9.31149963 18.26914856 8.05853088 17.91981262 6.76759338 17.55989075 C5.11655936 17.10022787 3.46551727 16.64059397 1.81446838 16.1809845 C0.98946838 15.95088684 0.16446838 15.72078918 -0.68553162 15.48371887 C-1.48475037 15.26135559 -2.28396912 15.03899231 -3.10740662 14.80989075 C-4.20713806 14.50353699 -4.20713806 14.50353699 -5.3290863 14.19099426 C-7.35861285 13.63939021 -9.39440625 13.12520455 -11.43553162 12.6184845 C-14.0197004 11.93395468 -16.60303739 11.24676509 -19.18553162 10.5559845 C-19.88291443 10.36971497 -20.58029724 10.18344543 -21.29881287 9.99153137 C-23.01112808 9.5341321 -24.72334012 9.07634665 -26.43553162 8.6184845 C-26.43553162 4.06755526 -25.98322125 3.48902296 -22.99803162 0.3059845 C-22.35994568 -0.41202332 -21.72185974 -1.13003113 -21.06443787 -1.86979675 C-14.89516935 -5.41735532 -6.49367688 -1.73846115 0 0 Z " fill="#262626" transform="translate(207.43553161621094,81.38151550292969)"/>
<path d="M0 0 C5.05341113 1.24677335 10.05859857 2.63395202 15.0625 4.0625 C16.41843841 4.44400461 17.77455711 4.82486907 19.13085938 5.20507812 C22.42239597 6.13045674 25.71197151 7.06224752 29 8 C29 11.98257272 27.69569193 12.89038086 25 15.75 C20.61175051 19.96053223 20.61175051 19.96053223 16.125 20.25 C14.73621294 19.88188777 13.36154485 19.45872837 12 19 C10.08378758 18.49826193 8.16709796 17.99834377 6.25 17.5 C4.5 17 2.75 16.5 1 16 C-0.33266635 15.66400997 -1.66610002 15.33105851 -3 15 C-5.58416879 14.31547018 -8.16750577 13.62828059 -10.75 12.9375 C-11.44738281 12.75123047 -12.14476563 12.56496094 -12.86328125 12.37304688 C-14.57559646 11.91564761 -16.2878085 11.45786215 -18 11 C-18 7.03409276 -16.73138287 6.11505716 -14.0625 3.25 C-12.96615234 2.02023438 -12.96615234 2.02023438 -11.84765625 0.765625 C-7.71059176 -1.79946848 -4.52665892 -1.02311343 0 0 Z " fill="#262626" transform="translate(79,47)"/>
<path d="M0 0 C6.05355467 1.47096792 12.06988437 3.04438888 18.078125 4.68896484 C19.48684565 5.07031778 20.89569885 5.45118142 22.3046875 5.83154297 C25.73071449 6.7575428 29.15489603 7.69016718 32.578125 8.62646484 C32.578125 12.60903757 31.27381693 13.5168457 28.578125 16.37646484 C24.18987551 20.58699707 24.18987551 20.58699707 19.703125 20.87646484 C18.31433794 20.50835261 16.93966985 20.08519322 15.578125 19.62646484 C13.66191258 19.12472677 11.74522296 18.62480861 9.828125 18.12646484 C8.078125 17.62646484 6.328125 17.12646484 4.578125 16.62646484 C3.24545865 16.29047481 1.91202498 15.95752335 0.578125 15.62646484 C-2.00604379 14.94193503 -4.58938077 14.25474544 -7.171875 13.56396484 C-7.86925781 13.37769531 -8.56664063 13.19142578 -9.28515625 12.99951172 C-10.99747146 12.54211245 -12.7096835 12.084327 -14.421875 11.62646484 C-14.421875 7.64389212 -13.11756693 6.73608399 -10.421875 3.87646484 C-9.679375 3.05662109 -8.936875 2.23677734 -8.171875 1.39208984 C-5.08640732 -0.58892065 -3.55552428 -0.6725087 0 0 Z " fill="#262626" transform="translate(135.421875,62.37353515625)"/>
<path d="M0 0 C0.33 0 0.66 0 1 0 C1 20.13 1 40.26 1 61 C9.415 62.98 9.415 62.98 18 65 C18.66 65.33 19.32 65.66 20 66 C20 52.47 20 38.94 20 25 C20.33 25 20.66 25 21 25 C22.57539978 44.99545877 21.66379024 64.98243445 21 85 C19.39468314 84.73606976 17.79081757 84.46331547 16.1875 84.1875 C14.84751953 83.96126953 14.84751953 83.96126953 13.48046875 83.73046875 C8.60232337 82.70666046 3.80879225 81.3114888 -1 80 C-0.67 53.6 -0.34 27.2 0 0 Z " fill="#F29900" transform="translate(219,279)"/>
<path d="M0 0 C0.33 0 0.66 0 1 0 C1 26.4 1 52.8 1 80 C-16 76 -16 76 -19 75 C-19 81.6 -19 88.2 -19 95 C-19.33 95 -19.66 95 -20 95 C-20 75.2 -20 55.4 -20 35 C-19.67 35 -19.34 35 -19 35 C-19 41.93 -19 48.86 -19 56 C-16.4940625 56.433125 -16.4940625 56.433125 -13.9375 56.875 C-9.45744357 57.64933074 -5.42887443 58.73460731 -1 60 C-0.67 40.2 -0.34 20.4 0 0 Z " fill="#F29900" transform="translate(219,119)"/>
<path d="M0 0 C0.33 0 0.66 0 1 0 C1 13.2 1 26.4 1 40 C1.66 40.33 2.32 40.66 3 41 C2.34 41 1.68 41 1 41 C1.05329468 42.51122437 1.05329468 42.51122437 1.10766602 44.05297852 C1.97788337 69.417888 1.92710688 94.63805583 1 120 C-5.82637177 118.69503224 -12.366614 117.08477846 -19 115 C-19 108.73 -19 102.46 -19 96 C-14.854375 96.9590625 -14.854375 96.9590625 -10.625 97.9375 C-9.75568848 98.13722412 -8.88637695 98.33694824 -7.99072266 98.54272461 C-7.3054248 98.70264893 -6.62012695 98.86257324 -5.9140625 99.02734375 C-4.8614624 99.27085571 -4.8614624 99.27085571 -3.78759766 99.51928711 C-2 100 -2 100 0 101 C0 67.67 0 34.34 0 0 Z " fill="#F39A00" transform="translate(179,168)"/>
<path d="M0 0 C0.66 0.33 1.32 0.66 2 1 C2 27.4 2 53.8 2 81 C-4.66666667 79.33333333 -11.33333333 77.66666667 -18 76 C-18 69.73 -18 63.46 -18 57 C-11.92690794 58.18087901 -6.015356 59.496161 0 61 C0 40.87 0 20.74 0 0 Z " fill="#F69D00" transform="translate(158,182)"/>
<path d="M0 0 C9 1 9 1 19 4 C19 10.93 19 17.86 19 25 C12.02208653 23.86608906 6.76198959 22.5357461 0 20 C0 13.4 0 6.8 0 0 Z " fill="#FEA703" transform="translate(120,193)"/>
<path d="M0 0 C10.17123288 1.13013699 10.17123288 1.13013699 14.5 2.5 C15.3353125 2.7578125 16.170625 3.015625 17.03125 3.28125 C19 4 19 4 20 5 C20.08651611 6.41570123 20.10704904 7.835595 20.09765625 9.25390625 C20.09443359 10.10791016 20.09121094 10.96191406 20.08789062 11.84179688 C20.07951172 12.73962891 20.07113281 13.63746094 20.0625 14.5625 C20.05798828 15.46419922 20.05347656 16.36589844 20.04882812 17.29492188 C20.03700225 19.53001314 20.0205222 21.76497437 20 24 C12.84576049 23.26124701 6.80504856 21.39723302 0 19 C0 12.73 0 6.46 0 0 Z " fill="#FBA301" transform="translate(120,313)"/>
<path d="M0 0 C10.17123288 1.13013699 10.17123288 1.13013699 14.5 2.5 C15.3353125 2.7578125 16.170625 3.015625 17.03125 3.28125 C19 4 19 4 20 5 C20.08651611 6.41570123 20.10704904 7.835595 20.09765625 9.25390625 C20.09443359 10.10791016 20.09121094 10.96191406 20.08789062 11.84179688 C20.07951172 12.73962891 20.07113281 13.63746094 20.0625 14.5625 C20.05798828 15.46419922 20.05347656 16.36589844 20.04882812 17.29492188 C20.03700225 19.53001314 20.0205222 21.76497437 20 24 C12.84576049 23.26124701 6.80504856 21.39723302 0 19 C0 12.73 0 6.46 0 0 Z " fill="#FBA301" transform="translate(120,93)"/>
<path d="M0 0 C1.464375 0.268125 2.92875 0.53625 4.4375 0.8125 C5.67306641 1.03873047 5.67306641 1.03873047 6.93359375 1.26953125 C11.02896585 2.24511671 15.00607265 3.66869088 19 5 C19 11.27 19 17.54 19 24 C11.79106296 23.199007 6.6908443 22.16745661 0 20 C0 13.4 0 6.8 0 0 Z " fill="#FCA502" transform="translate(40,291)"/>
<path d="M0 0 C1.57526935 0.34149196 3.13803169 0.74338488 4.6875 1.1875 C5.68265625 1.44015625 6.6778125 1.6928125 7.703125 1.953125 C10.38003931 2.65324105 13.0354115 3.39930921 15.6875 4.1875 C13.46862051 9.17716301 10.05251682 12.9357627 5.6875 16.1875 C2.4375 16.375 2.4375 16.375 -1.3125 15.1875 C-3.45644094 14.65893091 -5.60242516 14.13860524 -7.75 13.625 C-9.60505559 13.14928636 -11.45953165 12.67127991 -13.3125 12.1875 C-12.55209201 7.50887865 -9.95413708 4.96594271 -6.61328125 1.7734375 C-4.05939503 0.01303376 -3.04202156 -0.29598048 0 0 Z " fill="#272727" transform="translate(33.3125,34.8125)"/>
<path d="M0 0 C2.77270429 0.61748874 5.54295598 1.24362456 8.3125 1.875 C9.49102539 2.13603516 9.49102539 2.13603516 10.69335938 2.40234375 C11.45068359 2.57636719 12.20800781 2.75039062 12.98828125 2.9296875 C13.68477783 3.08679199 14.38127441 3.24389648 15.09887695 3.40576172 C17 4 17 4 20 6 C16.97154518 10.26469232 13.82223119 14.68929526 9 17 C3.12226733 17.4377035 -2.64776196 15.21083587 -8 13 C-8.66 12.34 -9.32 11.68 -10 11 C-9.36191406 10.37351562 -8.72382813 9.74703125 -8.06640625 9.1015625 C-7.24011719 8.28429687 -6.41382813 7.46703125 -5.5625 6.625 C-4.73878906 5.81289062 -3.91507813 5.00078125 -3.06640625 4.1640625 C-0.96565328 2.17651485 -0.96565328 2.17651485 0 0 Z " fill="#272727" transform="translate(230,248)"/>
<path d="M0 0 C4.58687258 0.99474345 9.09577717 2.22571929 13.59375 3.5625 C12.15393504 5.27939275 10.70262986 6.9814939 9.22265625 8.6640625 C7.85575616 10.2571403 6.58659061 11.93335584 5.34375 13.625 C2.59375 15.5625 2.59375 15.5625 0.375 15.52734375 C-5.36376396 14.4734658 -10.92795408 12.54738983 -16.40625 10.5625 C-14.94242297 8.82542526 -13.46956098 7.09938864 -11.97265625 5.390625 C-10.30690135 3.49653439 -10.30690135 3.49653439 -8.59375 1.0625 C-5.5503333 -1.02441431 -3.55927431 -0.56948389 0 0 Z " fill="#272727" transform="translate(296.40625,325.4375)"/>
<path d="M0 0 C1.70266968 0.5147606 3.39103815 1.07899546 5.0625 1.6875 C6.36767578 2.09935547 6.36767578 2.09935547 7.69921875 2.51953125 C9.83787137 3.20107989 11.95239074 3.92296766 14.0625 4.6875 C13.16948344 5.75236855 12.2729053 6.81425041 11.375 7.875 C10.87613281 8.46667969 10.37726563 9.05835938 9.86328125 9.66796875 C7.69506655 12.09956744 5.36617393 14.38382607 3.0625 16.6875 C-2.8775 15.0375 -8.8175 13.3875 -14.9375 11.6875 C-11.83484722 5.48219444 -7.79398328 -1.51988754 0 0 Z " fill="#272727" transform="translate(274.9375,299.3125)"/>
<path d="M0 0 C4.58687258 0.99474345 9.09577717 2.22571929 13.59375 3.5625 C12.15393504 5.27939275 10.70262986 6.9814939 9.22265625 8.6640625 C7.85575616 10.2571403 6.58659061 11.93335584 5.34375 13.625 C2.59375 15.5625 2.59375 15.5625 0.375 15.52734375 C-5.36376396 14.4734658 -10.92795408 12.54738983 -16.40625 10.5625 C-14.94242297 8.82542526 -13.46956098 7.09938864 -11.97265625 5.390625 C-10.30690135 3.49653439 -10.30690135 3.49653439 -8.59375 1.0625 C-5.5503333 -1.02441431 -3.55927431 -0.56948389 0 0 Z " fill="#272727" transform="translate(296.40625,105.4375)"/>
<path d="M0 0 C1.38874511 0.36827046 2.76320045 0.79202827 4.125 1.25 C6.12458166 1.77243712 8.12459769 2.29321398 10.125 2.8125 C11.79322271 3.28622085 13.46046212 3.76348985 15.125 4.25 C12.90701065 9.23766134 9.49157472 13.00305982 5.125 16.25 C1.8125 16.4375 1.8125 16.4375 -1.875 15.25 C-3.85298119 14.7246825 -5.8322226 14.2040941 -7.8125 13.6875 C-9.50117455 13.21248926 -11.18909158 12.73473678 -12.875 12.25 C-12.875 8.26742728 -11.57069193 7.35961914 -8.875 4.5 C-4.48675051 0.28946777 -4.48675051 0.28946777 0 0 Z " fill="#272727" transform="translate(253.875,273.75)"/>
<path d="M0 0 C2.79387762 0.61620855 5.58480926 1.24249695 8.375 1.875 C9.56609375 2.13603516 9.56609375 2.13603516 10.78125 2.40234375 C11.92207031 2.66337891 11.92207031 2.66337891 13.0859375 2.9296875 C13.7876709 3.08679199 14.4894043 3.24389648 15.21240234 3.40576172 C17 4 17 4 19 6 C18.36191406 6.62648438 17.72382812 7.25296875 17.06640625 7.8984375 C16.24011719 8.71570313 15.41382812 9.53296875 14.5625 10.375 C13.73878906 11.18710938 12.91507813 11.99921875 12.06640625 12.8359375 C9.96565328 14.82348515 9.96565328 14.82348515 9 17 C6.20612238 16.38379145 3.41519074 15.75750305 0.625 15.125 C-0.56609375 14.86396484 -0.56609375 14.86396484 -1.78125 14.59765625 C-2.92207031 14.33662109 -2.92207031 14.33662109 -4.0859375 14.0703125 C-4.7876709 13.91320801 -5.4894043 13.75610352 -6.21240234 13.59423828 C-8 13 -8 13 -10 11 C-9.36191406 10.37351562 -8.72382812 9.74703125 -8.06640625 9.1015625 C-7.24011719 8.28429687 -6.41382812 7.46703125 -5.5625 6.625 C-4.73878906 5.81289063 -3.91507812 5.00078125 -3.06640625 4.1640625 C-0.96565328 2.17651485 -0.96565328 2.17651485 0 0 Z " fill="#272727" transform="translate(110,56)"/>
<path d="M0 0 C2.79387762 0.61620855 5.58480926 1.24249695 8.375 1.875 C9.56609375 2.13603516 9.56609375 2.13603516 10.78125 2.40234375 C11.92207031 2.66337891 11.92207031 2.66337891 13.0859375 2.9296875 C13.7876709 3.08679199 14.4894043 3.24389648 15.21240234 3.40576172 C17 4 17 4 19 6 C15.33333333 9.66666667 11.66666667 13.33333333 8 17 C2.06 15.35 -3.88 13.7 -10 12 C-8.02 9.69 -6.04 7.38 -4 5 C-2.65807132 3.34024611 -1.32090525 1.67653359 0 0 Z " fill="#272727" transform="translate(50,40)"/>
<path d="M0 0 C2.27919049 0.4725151 4.0424935 1.02124675 6.125 2.0625 C6.125 6.3525 6.125 10.6425 6.125 15.0625 C1.04406532 16.07868694 -1.91055972 15.53751153 -6.6875 14.125 C-7.38037109 13.92970703 -8.07324219 13.73441406 -8.78710938 13.53320312 C-10.48589961 13.05285554 -12.18086595 12.55901979 -13.875 12.0625 C-13.11586572 7.3917155 -10.51270311 4.85895249 -7.2109375 1.640625 C-4.47984245 -0.20446263 -3.23626129 -0.35609348 0 0 Z " fill="#272727" transform="translate(33.875,254.9375)"/>
<path d="M0 0 C1.48011371 0.30798326 2.95907325 0.621518 4.4375 0.9375 C5.26121094 1.11152344 6.08492187 1.28554687 6.93359375 1.46484375 C9 2 9 2 10 3 C10.07258946 5.18639453 10.08373783 7.37500389 10.0625 9.5625 C10.05347656 10.76003906 10.04445312 11.95757812 10.03515625 13.19140625 C10.02355469 14.11824219 10.01195312 15.04507813 10 16 C6.75812614 17.08062462 6.10290139 16.96405231 2.98828125 16.00390625 C2.23095703 15.77509766 1.47363281 15.54628906 0.69335938 15.31054688 C-0.09232422 15.06369141 -0.87800781 14.81683594 -1.6875 14.5625 C-2.48478516 14.31951172 -3.28207031 14.07652344 -4.10351562 13.82617188 C-6.07139534 13.22520262 -8.03602495 12.6136095 -10 12 C-9.58024902 11.51370117 -9.16049805 11.02740234 -8.72802734 10.52636719 C-5.74778596 7.07058679 -2.8247593 3.58527142 0 0 Z " fill="#272727" transform="translate(170,112)"/>
</svg>
